<svg width="246" height="41" xmlns="http://www.w3.org/2000/svg" class="el-tooltip" preserveAspectRatio="xMidYMid meet">

 <g>
  <title>background</title>
  <rect fill="none" id="canvas_background" height="43" width="248" y="-1" x="-1"/>
 </g>
 <g>
  <title>Layer 1</title>
  <g id="svg_3" class="pmspacesvg" fill="#fff">
   <g id="svg_47" class="tp-name">
    <g id="svg_29">
     <rect id="svg_26" rx="19.335087" width="38.670174" height="38.670174" y="0.664917" x="0.935303"/>
     <g id="svg_28" fill="#009bff">
      <path id="svg_27" d="m11.153837,32.099941l0,-20.24l0,0q0,-2.39 1.22,-3.62l0,0l0,0q1.21,-1.23 3.88,-1.23l0,0l5.4,0l0,0q1.98,0 3.44,0.87l0,0l0,0q1.45,0.87 2.39,2.2l0,0l0,0q0.94,1.34 1.42,2.96l0,0l0,0q0.48,1.63 0.48,3.16l0,0l0,0q0,1.41 -0.31,3.1l0,0l0,0q-0.31,1.69 -1.16,3.2l0,0l0,0q-0.86,1.5 -2.4,2.51l0,0l0,0q-1.54,1.01 -4.03,1.01l0,0l-4.96,0l0,0q-0.58,0 -0.99,-0.34l0,0l0,0q-0.41,-0.35 -0.41,-0.93l0,0l0,0q0,-0.58 0.36,-0.97l0,0l0,0q0.36,-0.39 1.04,-0.39l0,0l3.56,0l0,0q1.09,0 1.81,-1l0,0l0,0q0.72,-0.99 1.09,-2.49l0,0l0,0q0.38,-1.51 0.38,-3.25l0,0l0,0q0,-1.74 -0.34,-3.25l0,0l0,0q-0.35,-1.5 -1.05,-2.5l0,0l0,0q-0.7,-0.99 -1.72,-0.99l0,0l-4,0l0,0q-1,0 -1.61,0.46l0,0l0,0q-0.62,0.47 -0.62,1.63l0,0l0,20.1l0,0q0,0.62 -0.44,0.93l0,0l0,0q-0.45,0.31 -0.99,0.31l0,0l0,0q-0.55,0 -0.99,-0.31l0,0l0,0q-0.45,-0.31 -0.45,-0.93l0,0z"/>
     </g>
    </g>
    <g id="svg_32">
     <g id="svg_31">
      <path id="svg_30" d="m59.724134,7.009941l6.84,0l0,0q1.5,0 2.55,0.83l0,0l0,0q1.04,0.84 1.6,2.09l0,0l0,0q0.57,1.25 0.62,2.7l0,0l0,0q0.05,1.45 -0.45,2.7l0,0l0,0q-0.49,1.25 -1.57,2.09l0,0l0,0q-1.08,0.84 -2.75,0.84l0,0l-4.45,0l0,0q-0.47,0 -0.82,-0.36l0,0l0,0q-0.34,-0.36 -0.34,-0.84l0,0l0,0q0,-0.48 0.34,-0.82l0,0l0,0q0.35,-0.34 0.82,-0.34l0,0l4.45,0l0,0q0.72,0 1.18,-0.46l0,0l0,0q0.46,-0.47 0.67,-1.17l0,0l0,0q0.2,-0.7 0.17,-1.54l0,0l0,0q-0.04,-0.83 -0.31,-1.53l0,0l0,0q-0.28,-0.71 -0.77,-1.18l0,0l0,0q-0.5,-0.48 -1.18,-0.48l0,0l-3.04,0l0,0q-1.58,0 -2.59,1.06l0,0l0,0q-1,1.06 -1.5,2.65l0,0l0,0q-0.5,1.59 -0.46,3.45l0,0l0,0q0.03,1.86 0.53,3.45l0,0l0,0q0.49,1.59 1.49,2.65l0,0l0,0q0.99,1.06 2.42,1.06l0,0l5.47,0l0,0q0.65,0 0.98,0.36l0,0l0,0q0.32,0.36 0.34,0.81l0,0l0,0q0.02,0.44 -0.31,0.8l0,0l0,0q-0.32,0.36 -1.01,0.36l0,0l-8.95,0l0,0q-2.43,0 -4.02,-1.42l0,0l0,0q-1.59,-1.42 -2.38,-3.56l0,0l0,0q-0.78,-2.13 -0.75,-4.61l0,0l0,0q0.03,-2.48 0.84,-4.62l0,0l0,0q0.8,-2.14 2.39,-3.55l0,0l0,0q1.59,-1.42 3.95,-1.42l0,0z"/>
     </g>
    </g>
    <g id="svg_36">
     <rect id="svg_33" rx="19.335087" width="38.670174" height="38.670174" y="0.664917" x="84.27565"/>
     <g id="svg_35" fill="#009bff">
      <path id="svg_34" d="m96.169184,24.619941l0,-13.85l0,0q0,-1.71 0.96,-2.74l0,0l0,0q0.96,-1.02 2.46,-1.02l0,0l7.8,0l0,0q1.19,0 2.01,0.44l0,0l0,0q0.82,0.45 1.23,1.11l0,0l0,0q0.42,0.67 0.42,1.51l0,0l0,0q0,0.83 -0.42,1.64l0,0l0,0q-0.41,0.8 -1.24,1.45l0,0l0,0q-0.84,0.65 -2.14,0.99l0,0l0,0q-0.44,0.11 -0.79,-0.03l0,0l0,0q-0.34,-0.14 -0.34,-0.62l0,0l0,-2.32l0,0q0,-0.58 -0.43,-0.81l0,0l0,0q-0.42,-0.22 -0.9,-0.22l0,0l-4.17,0l0,0q-1.37,0 -1.37,1.71l0,0l0,12.76l0,0q0,0.82 -0.48,1.21l0,0l0,0q-0.48,0.39 -1.06,0.39l0,0l0,0q-0.58,0 -1.06,-0.41l0,0l0,0q-0.48,-0.41 -0.48,-1.19l0,0z"/>
     </g>
    </g>
    <g id="svg_39">
     <g id="svg_38">
      <path id="svg_37" d="m136.164358,32.099941l0,-20.24l0,0q0,-2.39 1.22,-3.62l0,0l0,0q1.21,-1.23 3.88,-1.23l0,0l5.4,0l0,0q1.98,0 3.44,0.87l0,0l0,0q1.45,0.87 2.39,2.2l0,0l0,0q0.94,1.34 1.42,2.96l0,0l0,0q0.48,1.63 0.48,3.16l0,0l0,0q0,1.41 -0.31,3.1l0,0l0,0q-0.31,1.69 -1.16,3.2l0,0l0,0q-0.86,1.5 -2.4,2.51l0,0l0,0q-1.54,1.01 -4.03,1.01l0,0l-4.96,0l0,0q-0.58,0 -0.99,-0.34l0,0l0,0q-0.41,-0.35 -0.41,-0.93l0,0l0,0q0,-0.58 0.36,-0.97l0,0l0,0q0.36,-0.39 1.04,-0.39l0,0l3.56,0l0,0q1.09,0 1.81,-1l0,0l0,0q0.72,-0.99 1.09,-2.49l0,0l0,0q0.38,-1.51 0.38,-3.25l0,0l0,0q0,-1.74 -0.34,-3.25l0,0l0,0q-0.35,-1.5 -1.05,-2.5l0,0l0,0q-0.7,-0.99 -1.72,-0.99l0,0l-4,0l0,0q-1,0 -1.61,0.46l0,0l0,0q-0.62,0.47 -0.62,1.63l0,0l0,20.1l0,0q0,0.62 -0.44,0.93l0,0l0,0q-0.45,0.31 -0.99,0.31l0,0l0,0q-0.55,0 -0.99,-0.31l0,0l0,0q-0.45,-0.31 -0.45,-0.93l0,0z"/>
     </g>
    </g>
    <g id="svg_43">
     <rect id="svg_40" rx="19.335087" width="38.670174" height="38.670174" y="0.664917" x="167.615997"/>
     <g id="svg_42" fill="#009bff">
      <path id="svg_41" d="m191.584688,22.799941l0,-11.14l0,0q0,-1.17 -0.77,-1.61l0,0l0,0q-0.77,-0.44 -1.76,-0.44l0,0l-3.25,0l0,0q-0.99,0 -1.66,1.02l0,0l0,0q-0.66,1.03 -0.97,2.55l0,0l0,0q-0.31,1.52 -0.29,3.3l0,0l0,0q0.01,1.78 0.37,3.3l0,0l0,0q0.36,1.52 1.05,2.55l0,0l0,0q0.68,1.02 1.67,1.02l0,0l3.11,0l0,0q0.65,0 1.01,0.39l0,0l0,0q0.36,0.4 0.36,0.98l0,0l0,0q0,0.58 -0.39,0.9l0,0l0,0q-0.4,0.33 -0.98,0.33l0,0l-4.48,0l0,0q-2.25,0 -3.72,-0.86l0,0l0,0q-1.47,-0.85 -2.36,-2.18l0,0l0,0q-0.89,-1.34 -1.27,-2.94l0,0l0,0q-0.37,-1.61 -0.37,-3.12l0,0l0,0q0,-1.53 0.37,-3.31l0,0l0,0q0.38,-1.78 1.23,-3.3l0,0l0,0q0.86,-1.52 2.23,-2.55l0,0l0,0q1.36,-1.03 3.28,-1.03l0,0l4.61,0l0,0q3.22,0 4.52,1.25l0,0l0,0q1.3,1.25 1.3,3.61l0,0l0,10.46l0,0q0,0.38 0.15,0.69l0,0l0,0q0.15,0.3 0.8,0.3l0,0l0.11,0l0,0q0.78,-0.03 1.16,0.43l0,0l0,0q0.38,0.46 0.38,1.03l0,0l0,0q0,0.56 -0.4,1.04l0,0l0,0q-0.39,0.48 -1.14,0.48l0,0l-1.27,0l0,0q-2.63,0 -2.63,-3.15l0,0z"/>
     </g>
    </g>
    <g id="svg_46">
     <g id="svg_45">
      <path id="svg_44" d="m234.194698,27.619941l0,-19.18l0,0q0,-0.68 0.44,-1.04l0,0l0,0q0.45,-0.36 1,-0.36l0,0l0,0q0.54,0 0.99,0.34l0,0l0,0q0.44,0.34 0.44,1.06l0,0l0,20.45l0,0q0,1.06 -0.41,1.9l0,0l0,0q-0.41,0.84 -1.09,1.4l0,0l0,0q-0.69,0.56 -1.61,0.85l0,0l0,0q-0.92,0.3 -1.98,0.3l0,0l-9.03,0l0,0q-0.79,0 -1.16,-0.48l0,0l0,0q-0.38,-0.48 -0.38,-1.05l0,0l0,0q0,-0.56 0.38,-1.02l0,0l0,0q0.37,-0.46 1.16,-0.46l0,0l7.87,0l0,0q1.4,0 2.39,-0.65l0,0l0,0q0.99,-0.65 0.99,-2.06l0,0zm-8.68,-20.51l0,0l0,0q0.78,-0.17 1.18,-0.02l0,0l0,0q0.39,0.16 0.39,0.81l0,0l0,12.2l0,0q0,1.51 0.75,2.16l0,0l0,0q0.75,0.65 1.81,0.65l0,0l2.05,0l0,0q0.69,0 1.05,0.39l0,0l0,0q0.36,0.39 0.36,0.97l0,0l0,0q0,0.59 -0.41,0.93l0,0l0,0q-0.41,0.34 -1,0.34l0,0l-4.47,0l0,0q-2.23,0 -3.61,-0.91l0,0l0,0q-1.39,-0.9 -2.16,-2.25l0,0l0,0q-0.77,-1.35 -1.02,-2.94l0,0l0,0q-0.26,-1.59 -0.26,-3l0,0l0,0q0,-1.33 0.43,-2.89l0,0l0,0q0.43,-1.55 1.16,-2.9l0,0l0,0q0.74,-1.35 1.69,-2.34l0,0l0,0q0.96,-1 2.06,-1.2z"/>
     </g>
    </g>
   </g>
  </g>
 </g>
</svg>